<svg width="33" height="9" viewBox="0 0 33 9" fill="none" xmlns="http://www.w3.org/2000/svg">
<path id="Arrow_1" d="M0 4.42246C0 4.37968 0 4.37968 0 4.3369C0 4.29412 0 4.29412 0.0445938 4.25134C0.0445938 4.20856 0.0445938 4.20856 0.0891876 4.16578C0.0891876 4.12299 0.133785 4.12299 0.133785 4.08021C0.133785 4.03743 0.178379 4.03743 0.178379 3.99465C0.178379 3.95187 0.222973 3.95187 0.222973 3.90909L0.267567 3.86631L0.31216 3.82353C0.356754 3.82353 0.356758 3.78075 0.401352 3.78075L6.06487 0.144385C6.46622 -0.112299 7.04595 -0.026738 7.31351 0.40107C7.58108 0.786096 7.49189 1.34225 7.04595 1.59893L3.83513 3.65241H32.1081C32.5986 3.65241 33 4.03743 33 4.50802C33 4.97861 32.5986 5.36364 32.1081 5.36364H3.83513L7.04595 7.41711C7.4473 7.6738 7.58108 8.22995 7.31351 8.61497C7.13513 8.87166 6.86757 9 6.5554 9C6.37703 9 6.19865 8.95722 6.06487 8.87166L0.401352 5.23529C0.356758 5.23529 0.356758 5.19251 0.356758 5.19251L0.31216 5.14973C0.31216 5.14973 0.31216 5.14973 0.267567 5.14973L0.222973 5.10695C0.222973 5.06417 0.178379 5.06417 0.178379 5.02139C0.178379 4.97861 0.133785 4.97861 0.133785 4.93583C0.133785 4.89305 0.0891876 4.89305 0.0891876 4.85027C0.0891876 4.80749 0.0891876 4.80749 0.0445938 4.76471C0.0445938 4.72192 0.0445938 4.72193 0 4.67914C0 4.63636 0 4.63636 0 4.59358C0 4.5508 0 4.5508 0 4.50802C0 4.46524 0 4.46524 0 4.42246Z" fill="url(#paint0_linear)"/>
<defs>
<linearGradient id="paint0_linear" x1="49.5" y1="4.5" x2="44.9308" y2="21.2538" gradientUnits="userSpaceOnUse">
<stop stop-color="#E040FB"/>
<stop offset="1" stop-color="#6301EA"/>
</linearGradient>
</defs>
</svg>
