<svg width="33" height="9" viewBox="0 0 33 9" fill="none" xmlns="http://www.w3.org/2000/svg">
<path id="Arrow_2" d="M33 4.42246C33 4.37968 33 4.37968 33 4.3369C33 4.29412 33 4.29412 32.9554 4.25134C32.9554 4.20856 32.9554 4.20856 32.9108 4.16578C32.9108 4.12299 32.8662 4.12299 32.8662 4.08021C32.8662 4.03743 32.8216 4.03743 32.8216 3.99465C32.8216 3.95187 32.777 3.95187 32.777 3.90909L32.7324 3.86631L32.6878 3.82353C32.6432 3.82353 32.6432 3.78075 32.5986 3.78075L26.9351 0.144385C26.5338 -0.112299 25.9541 -0.026738 25.6865 0.40107C25.4189 0.786096 25.5081 1.34225 25.9541 1.59893L29.1649 3.65241H0.891892C0.401351 3.65241 0 4.03743 0 4.50802C0 4.97861 0.401351 5.36364 0.891892 5.36364H29.1649L25.9541 7.41711C25.5527 7.6738 25.4189 8.22995 25.6865 8.61497C25.8649 8.87166 26.1324 9 26.4446 9C26.623 9 26.8014 8.95722 26.9351 8.87166L32.5986 5.23529C32.6432 5.23529 32.6432 5.19251 32.6432 5.19251L32.6878 5.14973C32.6878 5.14973 32.6878 5.14973 32.7324 5.14973L32.777 5.10695C32.777 5.06417 32.8216 5.06417 32.8216 5.02139C32.8216 4.97861 32.8662 4.97861 32.8662 4.93583C32.8662 4.89305 32.9108 4.89305 32.9108 4.85027C32.9108 4.80749 32.9108 4.80749 32.9554 4.76471C32.9554 4.72192 32.9554 4.72193 33 4.67914C33 4.63636 33 4.63636 33 4.59358C33 4.5508 33 4.5508 33 4.50802C33 4.46524 33 4.46524 33 4.42246Z" fill="url(#paint0_linear)"/>
<defs>
<linearGradient id="paint0_linear" x1="-16.5" y1="4.5" x2="-11.9308" y2="21.2538" gradientUnits="userSpaceOnUse">
<stop stop-color="#E040FB"/>
<stop offset="1" stop-color="#6301EA"/>
</linearGradient>
</defs>
</svg>
