<svg width="50" height="55" viewBox="0 0 50 55" fill="none" xmlns="http://www.w3.org/2000/svg">
<path id="Combined Shape" d="M6.07452 13.3042L6.49777 9.82988L6.49746 9.82985L6.07452 13.3042ZM21.7905 15.2188L25.2769 15.5271C25.4432 13.6464 24.0879 11.9727 22.2138 11.7444L21.7905 15.2188ZM5.81781 13.2729L2.33144 12.9644C2.16497 14.8453 3.52047 16.5191 5.39487 16.7473L5.81781 13.2729ZM5.8634 12.7578L6.28644 9.28347C5.34517 9.16886 4.39769 9.44107 3.66078 10.0378C2.92388 10.6345 2.46063 11.5047 2.37703 12.4492L5.8634 12.7578ZM6.12006 12.7891L6.5433 9.31475L6.54309 9.31472L6.12006 12.7891ZM21.8361 14.7036L22.2594 11.2293L22.2593 11.2293L21.8361 14.7036ZM22.1586 14.7429L21.7353 18.2172L21.7363 18.2173L22.1586 14.7429ZM22.3494 14.7661L22.7744 11.292L22.7718 11.2917L22.3494 14.7661ZM22.4153 14.7742L25.9017 15.0822C26.0678 13.2023 24.7135 11.5292 22.8403 11.3001L22.4153 14.7742ZM22.3698 15.2896L21.9451 18.7637C22.8867 18.8788 23.8347 18.6067 24.572 18.0099C25.3092 17.413 25.7727 16.5425 25.8562 15.5976L22.3698 15.2896ZM22.3038 15.2815L22.7285 11.8073C21.7869 11.6923 20.839 11.9643 20.1017 12.5611C19.3645 13.1578 18.901 14.0283 18.8174 14.9732L22.3038 15.2815ZM20.9319 30.7944L17.4455 30.4861C17.2792 32.3668 18.6345 34.0404 20.5086 34.2687L20.9319 30.7944ZM36.3912 32.6777L35.968 36.1521C36.9096 36.2668 37.8575 35.9944 38.5945 35.3972C39.3315 34.8001 39.7947 33.9294 39.8778 32.9844L36.3912 32.6777ZM36.397 32.6118L36.82 29.1375C35.8784 29.0228 34.9306 29.2953 34.1937 29.8924C33.4567 30.4896 32.9936 31.3602 32.9105 32.3051L36.397 32.6118ZM36.9104 32.6743L40.3967 32.9842C40.5639 31.1029 39.2083 29.4282 37.3334 29.2L36.9104 32.6743ZM36.9045 32.7402L33.4183 32.4303C33.2511 34.311 34.6058 35.9853 36.4799 36.2144L36.9045 32.7402ZM36.9705 32.7483L40.4569 33.0563C40.623 31.1763 39.2685 29.5031 37.3951 29.2741L36.9705 32.7483ZM36.9249 33.2637L36.5003 36.7378C37.4419 36.8529 38.3899 36.5809 39.1271 35.984C39.8644 35.3872 40.3279 34.5166 40.4113 33.5717L36.9249 33.2637ZM36.859 33.2556L37.2836 29.7815C36.3421 29.6664 35.3942 29.9384 34.6569 30.5352C33.9197 31.132 33.4562 32.0024 33.3726 32.9473L36.859 33.2556ZM35.4642 49.0261L31.9778 48.7178L31.9778 48.718L35.4642 49.0261ZM35.4415 49.2837L35.0185 52.758C35.9598 52.8726 36.9074 52.6004 37.6443 52.0036C38.3812 51.4067 38.8444 50.5364 38.9279 49.5918L35.4415 49.2837ZM34.9281 49.2212L31.4417 48.913C31.2755 50.7938 32.6309 52.4674 34.5051 52.6955L34.9281 49.2212ZM34.9509 48.9636L31.4645 48.6553L31.4645 48.6555L34.9509 48.9636ZM36.3456 33.1929L39.832 33.5012C39.9984 31.6205 38.6431 29.9469 36.7689 29.7186L36.3456 33.1929ZM20.8863 31.3096L21.3095 27.8353C20.3679 27.7205 19.4201 27.9929 18.683 28.5901C17.946 29.1872 17.4829 30.058 17.3998 31.0029L20.8863 31.3096ZM20.8805 31.3755L20.4575 34.8498C21.3991 34.9645 22.3469 34.692 23.0839 34.0949C23.8209 33.4978 24.2839 32.6271 24.367 31.6822L20.8805 31.3755ZM20.3671 31.313L16.8809 31.0031C16.7136 32.8844 18.0693 34.5591 19.9441 34.7873L20.3671 31.313ZM20.373 31.2471L23.8592 31.557L23.8594 31.5546L20.373 31.2471ZM20.3899 31.0554L16.9036 30.7463L16.9034 30.7479L20.3899 31.0554ZM20.4186 30.7319L23.9049 31.0411L23.905 31.0403L20.4186 30.7319ZM5.65128 16.7785L21.3673 18.6931L22.2138 11.7444L6.49777 9.82988L5.65128 16.7785ZM5.39487 16.7473L5.65159 16.7786L6.49746 9.82985L6.24075 9.7986L5.39487 16.7473ZM2.37703 12.4492L2.33144 12.9644L9.30418 13.5815L9.34977 13.0664L2.37703 12.4492ZM6.54309 9.31472L6.28644 9.28347L5.44037 16.2322L5.69702 16.2634L6.54309 9.31472ZM22.2593 11.2293L6.5433 9.31475L5.69681 16.2634L21.4128 18.1779L22.2593 11.2293ZM22.582 11.2686L22.2594 11.2293L21.4127 18.1779L21.7353 18.2172L22.582 11.2686ZM22.7718 11.2917L22.581 11.2685L21.7363 18.2173L21.9271 18.2405L22.7718 11.2917ZM22.8403 11.3001L22.7744 11.292L21.9244 18.2402L21.9903 18.2483L22.8403 11.3001ZM25.8562 15.5976L25.9017 15.0822L18.9289 14.4662L18.8833 14.9815L25.8562 15.5976ZM21.8792 18.7556L21.9451 18.7637L22.7944 11.8154L22.7285 11.8073L21.8792 18.7556ZM24.4183 31.1028L25.7902 15.5898L18.8174 14.9732L17.4455 30.4861L24.4183 31.1028ZM36.8145 29.2034L21.3551 27.3201L20.5086 34.2687L35.968 36.1521L36.8145 29.2034ZM39.8778 32.9844L39.8836 32.9185L32.9105 32.3051L32.9047 32.371L39.8778 32.9844ZM35.974 36.0862L36.4874 36.1487L37.3334 29.2L36.82 29.1375L35.974 36.0862ZM33.4241 32.3644L33.4183 32.4303L40.3908 33.0501L40.3967 32.9842L33.4241 32.3644ZM37.3951 29.2741L37.3292 29.2661L36.4799 36.2144L36.5458 36.2224L37.3951 29.2741ZM40.4113 33.5717L40.4569 33.0563L33.484 32.4403L33.4385 32.9557L40.4113 33.5717ZM36.4344 36.7298L36.5003 36.7378L37.3495 29.7895L37.2836 29.7815L36.4344 36.7298ZM33.3726 32.9473L31.9778 48.7178L38.9506 49.3345L40.3454 33.564L33.3726 32.9473ZM31.9778 48.718L31.9551 48.9755L38.9279 49.5918L38.9506 49.3343L31.9778 48.718ZM35.8645 45.8093L35.3511 45.7468L34.5051 52.6955L35.0185 52.758L35.8645 45.8093ZM38.4145 49.5293L38.4373 49.2718L31.4645 48.6555L31.4417 48.913L38.4145 49.5293ZM38.4373 49.272L39.832 33.5012L32.8593 32.8845L31.4645 48.6553L38.4373 49.272ZM20.463 34.7839L35.9224 36.6672L36.7689 29.7186L21.3095 27.8353L20.463 34.7839ZM24.367 31.6822L24.3728 31.6163L17.3998 31.0029L17.394 31.0688L24.367 31.6822ZM19.9441 34.7873L20.4575 34.8498L21.3035 27.9011L20.7901 27.8386L19.9441 34.7873ZM16.8867 30.9372L16.8809 31.0031L23.8534 31.6229L23.8592 31.557L16.8867 30.9372ZM16.9034 30.7479L16.8865 30.9395L23.8594 31.5546L23.8764 31.363L16.9034 30.7479ZM16.9323 30.4228L16.9036 30.7463L23.8762 31.3646L23.9049 31.0411L16.9323 30.4228ZM18.3041 14.9104L16.9322 30.4236L23.905 31.0403L25.2769 15.5271L18.3041 14.9104Z" fill="url(#paint0_linear)"/>
<defs>
<linearGradient id="paint0_linear" x1="16.2197" y1="35.1835" x2="36.9495" y2="25.6588" gradientUnits="userSpaceOnUse">
<stop stop-color="#6C08EB"/>
<stop offset="1" stop-color="#DD6FFF"/>
</linearGradient>
</defs>
</svg>
